<svg width="127" height="55" viewBox="0 0 127 55" fill="none" xmlns="http://www.w3.org/2000/svg">
<path d="M3.64347 50.061L3.20475 51.7026L14.6831 51.6924C15.0912 51.6924 15.2952 51.8453 15.2952 52.1512C15.2952 52.226 15.2816 52.311 15.2544 52.4062L14.9687 53.4258C14.8463 53.9016 14.5334 54.1396 14.0301 54.1396H2.80683C1.3172 54.1396 0.572388 53.5618 0.572388 52.4062C0.572388 52.1071 0.623402 51.7672 0.725432 51.3865L2.09263 46.2882C2.58237 44.4529 3.76591 43.5352 5.64325 43.5352H16.8869C17.2882 43.5352 17.4889 43.6847 17.4889 43.9838C17.4889 44.0586 17.4753 44.1436 17.4481 44.2387L17.1624 45.2686C17.0331 45.7444 16.7168 45.9823 16.2135 45.9823H4.72498L4.28626 47.6138H15.7748C16.1829 47.6138 16.3869 47.7667 16.3869 48.0726C16.3869 48.1474 16.3733 48.2324 16.3461 48.3275L16.0809 49.3472C15.9516 49.823 15.6319 50.061 15.1218 50.061H3.64347Z" fill="white"/>
<path d="M20.06 45.9721L19.6111 47.6138H29.2937L29.7426 45.9823L20.06 45.9721ZM18.9683 50.061L18.5194 51.6924H28.202L28.6509 50.061H18.9683ZM17.9684 44.2489C18.0908 43.7731 18.4105 43.5352 18.9275 43.5352H30.1405C31.6233 43.5352 32.3648 44.113 32.3648 45.2686C32.3648 45.5677 32.3137 45.9076 32.2117 46.2882L32.0791 46.7981C31.7798 47.8925 31.3309 48.5723 30.7323 48.8374C31.0112 49.0005 31.1506 49.3132 31.1506 49.7755C31.1506 50.0813 31.0928 50.4484 30.9771 50.8767L30.8343 51.3865C30.3446 53.2219 29.1644 54.1396 27.2939 54.1396H16.0809C15.6727 54.1328 15.4687 53.9764 15.4687 53.6705C15.4687 53.5957 15.4789 53.5142 15.4993 53.4258L17.9684 44.2489Z" fill="white"/>
<path d="M35.3644 45.9721L34.64 48.6334H44.3226L45.047 45.9823L35.3644 45.9721ZM33.2728 44.2489C33.4021 43.7731 33.7183 43.5352 34.2217 43.5352H45.4449C46.9277 43.5352 47.6692 44.113 47.6692 45.2686C47.6692 45.5677 47.6181 45.9076 47.5161 46.2882L46.955 48.3275C46.4652 50.1629 45.2851 51.0806 43.4145 51.0806H33.987L33.3544 53.4258C33.232 53.9016 32.9157 54.1396 32.4056 54.1396H31.3853C30.9771 54.1396 30.7731 53.9832 30.7731 53.6705C30.7731 53.6025 30.7833 53.521 30.8037 53.4258L33.2728 44.2489Z" fill="white"/>
<path d="M50.6688 45.9721L49.1384 51.6924L58.821 51.7026L60.3616 45.9823L50.6688 45.9721ZM60.7493 43.5352C62.2322 43.5352 62.9736 44.113 62.9736 45.2686C62.9736 45.5677 62.9226 45.9076 62.8205 46.2882L61.4533 51.3865C60.9636 53.2219 59.7835 54.1396 57.9129 54.1396H48.7303C47.2474 54.1396 46.506 53.5618 46.506 52.4062C46.506 52.1071 46.557 51.7672 46.6591 51.3865L48.0263 46.2882C48.516 44.4529 49.6995 43.5352 51.5769 43.5352H60.7493Z" fill="white"/>
<path d="M64.8203 50.2343L63.9633 53.4258C63.8408 53.9016 63.5245 54.1396 63.0144 54.1396H61.9941C61.586 54.1396 61.3819 53.9832 61.3819 53.6705C61.3819 53.6025 61.3921 53.521 61.4125 53.4258L63.8714 44.2591C64.0075 43.7833 64.3272 43.5454 64.8305 43.5454H65.8508C66.2589 43.5454 66.463 43.6983 66.463 44.0042C66.463 44.079 66.4494 44.164 66.4222 44.2591L65.5753 47.4404C65.5345 47.4744 65.5141 47.5016 65.5141 47.522V47.5322C65.5141 47.539 65.5175 47.5424 65.5243 47.5424C65.5855 47.5424 65.7318 47.4914 65.963 47.3895L74.4519 43.5352H79.4513L67.9526 48.8374L76.6149 54.1396H71.6155L65.1876 50.2853C65.0108 50.1833 64.8917 50.1323 64.8305 50.1323C64.8169 50.1323 64.8067 50.1391 64.7999 50.1527C64.7999 50.1731 64.8067 50.2003 64.8203 50.2343Z" fill="white"/>
<path d="M81.2776 45.9721L80.5532 48.6334H90.2358L90.9602 45.9823L81.2776 45.9721ZM79.1861 44.2489C79.3153 43.7731 79.6316 43.5352 80.1349 43.5352H91.3582C92.841 43.5352 93.5824 44.113 93.5824 45.2686C93.5824 45.5677 93.5314 45.9076 93.4294 46.2882L92.8682 48.3275C92.3784 50.1629 91.1983 51.0806 89.3278 51.0806H79.9002L79.2677 53.4258C79.1452 53.9016 78.8289 54.1396 78.3188 54.1396H77.2985C76.8904 54.1396 76.6863 53.9832 76.6863 53.6705C76.6863 53.6025 76.6965 53.521 76.7169 53.4258L79.1861 44.2489Z" fill="white"/>
<path d="M96.4596 52.1003L94.5415 54.1396H91.6642L100.143 45.1768C101.156 44.0824 102.139 43.5352 103.092 43.5352C104.044 43.5352 104.741 44.0824 105.183 45.1768L108.846 54.1396H105.969L105.132 52.1003H96.4596ZM104.132 49.6531L102.52 45.6968L98.7859 49.6531H104.132Z" fill="white"/>
<path d="M112.835 50.061L111.927 53.4258C111.805 53.9016 111.489 54.1396 110.978 54.1396H109.958C109.55 54.1396 109.346 53.9832 109.346 53.6705C109.346 53.6025 109.356 53.521 109.377 53.4258L111.886 44.045H111.897C111.985 43.7051 112.284 43.5352 112.795 43.5352H113.815C114.223 43.5352 114.427 43.6915 114.427 44.0042C114.427 44.0722 114.417 44.1538 114.396 44.2489L113.488 47.6138H123.181L124.14 44.045H124.15C124.239 43.7051 124.538 43.5352 125.048 43.5352H126.069C126.477 43.5352 126.681 43.6915 126.681 44.0042C126.681 44.0722 126.671 44.1538 126.65 44.2489L124.181 53.4258C124.059 53.9016 123.742 54.1396 123.232 54.1396H122.212C121.804 54.1396 121.6 53.9832 121.6 53.6705C121.6 53.6025 121.61 53.521 121.63 53.4258L122.538 50.061H112.835Z" fill="white"/>
<path fill-rule="evenodd" clip-rule="evenodd" d="M88.2327 17.2463C88.2327 26.2966 77.3182 33.6332 63.8544 33.6332C50.3907 33.6332 39.4762 26.2966 39.4762 17.2463C39.4762 8.19605 50.3907 0.859375 63.8544 0.859375C77.3182 0.859375 88.2327 8.19605 88.2327 17.2463ZM78.2719 27.4547H74.0686L64.0697 21.4601C63.7946 21.3015 63.6094 21.2222 63.5142 21.2222C63.493 21.2222 63.4772 21.2328 63.4666 21.2539C63.4666 21.2857 63.4772 21.3279 63.4983 21.3808L62.1651 26.3446C61.9747 27.0847 61.4827 27.4547 60.6891 27.4547H59.102C58.4672 27.4547 58.1497 27.2115 58.1497 26.7252C58.1497 26.6195 58.1656 26.4926 58.1973 26.3446L59.2539 22.4064H43.7691C44.7664 23.9273 46.2152 25.3612 48.1009 26.6288C52.0174 29.2614 57.5792 30.9759 63.8544 30.9759C69.4467 30.9759 74.4724 29.6143 78.2719 27.4547ZM48.8027 7.41276C52.6686 5.03703 57.9452 3.51671 63.8544 3.51671C70.1296 3.51671 75.6915 5.23117 79.608 7.86385C81.0217 8.81411 82.1898 9.85784 83.1062 10.9616H78.4808L65.2759 16.9562C64.9162 17.1148 64.6887 17.1941 64.5935 17.1941C64.5829 17.1941 64.5776 17.1888 64.5776 17.1783V17.1624C64.5776 17.1307 64.6093 17.0884 64.6728 17.0355L65.9901 12.0876C66.0324 11.9396 66.0536 11.8074 66.0536 11.6911C66.0536 11.2154 65.7362 10.9775 65.1013 10.9775H63.5142C62.7312 10.9775 62.2339 11.3475 62.0223 12.0876L61.7294 13.1796H45.7087L46.3291 10.8728H62.5755C63.2873 10.8728 63.7346 10.5364 63.9173 9.86365L64.3213 8.40754C64.3598 8.27298 64.379 8.15283 64.379 8.04711C64.379 7.62421 64.0953 7.41276 63.5278 7.41276H48.8027ZM83.9115 12.0433L68.3708 19.2082L80.0251 26.3406C83.6846 23.7427 85.5732 20.4964 85.5732 17.2463C85.5732 15.4761 85.013 13.7071 83.9115 12.0433ZM44.7997 16.6396L44.1793 18.9608L60.1821 18.9466L60.8011 16.6396H44.7997Z" fill="white"/>
</svg>
